<svg width="30" height="30" viewBox="0 0 30 30" fill="none" xmlns="http://www.w3.org/2000/svg">
<path d="M7.09004 17.9677L6.02661 22.5572C5.98993 22.725 5.99118 22.8989 6.03029 23.0661C6.0694 23.2333 6.14537 23.3897 6.25265 23.5238C6.35994 23.6579 6.49582 23.7663 6.65038 23.8412C6.80495 23.9161 6.97428 23.9555 7.14601 23.9565C7.22603 23.9646 7.30666 23.9646 7.38668 23.9565L12.0042 22.8931L20.8699 14.061L15.9221 9.12445L7.09004 17.9677Z" fill="#939393"/>
<path d="M23.6571 9.6395L20.3549 6.33727C20.1378 6.12126 19.844 6 19.5377 6C19.2315 6 18.9377 6.12126 18.7206 6.33727L16.8848 8.17308L21.8269 13.1152L23.6627 11.2794C23.7702 11.1714 23.8553 11.0433 23.9131 10.9024C23.971 10.7615 24.0005 10.6106 24 10.4583C23.9995 10.306 23.9689 10.1553 23.9101 10.0148C23.8513 9.87426 23.7653 9.74674 23.6571 9.6395Z" fill="#939393"/>
</svg>
